PathFileType	4	(X/Y/Z)	Patient4_TMGait_0pt5_01_left_07.trc.trc
DataRate	CameraRate	NumFrames	NumMarkers	Units	OrigDataRate	OrigDataStartFrame	OrigNumFrames
74.468085106383	74.468085106383	4	33	mm	74.468085106383	36	       141
Frame#	Time	L.ASIS			Sacral			L.Shoulder			Chest			R.Shoulder			Neck			R.ASIS			R.Thigh.Superior			R.Thigh.Lateral			R.Thigh.Inferior			R.Patella			L.Thigh.Superior			L.Thigh.Lateral			L.Thigh.Inferior			L.Patella			L.Shank.Superior			L.Shank.Lateral			L.Shank.Inferior			R.Shank.Superior			R.Shank.Lateral			R.Shank.Inferior			R.Heel			R.Midfoot.Superior			R.Midfoot.Lateral			R.Toe			L.Heel			L.Midfoot.Lateral			L.Midfoot.Superior			L.Toe			L.Elbow			L.Wrist			R.Elbow			R.Wrist			
		X1	Y1	Z1	X2	Y2	Z2	X3	Y3	Z3	X4	Y4	Z4	X5	Y5	Z5	X6	Y6	Z6	X7	Y7	Z7	X8	Y8	Z8	X9	Y9	Z9	X10	Y10	Z10	X11	Y11	Z11	X12	Y12	Z12	X13	Y13	Z13	X14	Y14	Z14	X15	Y15	Z15	X16	Y16	Z16	X17	Y17	Z17	X18	Y18	Z18	X19	Y19	Z19	X20	Y20	Z20	X21	Y21	Z21	X22	Y22	Z22	X23	Y23	Z23	X24	Y24	Z24	X25	Y25	Z25	X26	Y26	Z26	X27	Y27	Z27	X28	Y28	Z28	X29	Y29	Z29	X30	Y30	Z30	X31	Y31	Z31	X32	Y32	Z32	X33	Y33	Z33	

36	9.870000000000	704.325681225862	958.475376196708	324.402409288243	493.016007085641	1005.227748203170	485.357620717707	657.339350524521	1436.849342142699	317.249190988770	768.218473111017	1358.083197857997	468.985832069233	694.859029528472	1426.861054883140	650.269439345246	667.942066783786	1491.525972924908	469.201498511158	720.190302900153	930.667085646139	598.074941115477	725.906834097016	719.450816969775	575.177314645478	624.794287728501	624.680125436168	635.573924935835	695.006907948344	555.210132183230	563.032369070713	672.699707639533	453.036342185230	576.540901766984	773.086888656619	765.356526805763	361.848486579679	707.444537061358	637.817626234746	296.742837445842	798.442270829475	572.198231051472	365.850002295767	807.787761668644	501.381530491302	374.971973321244	791.081016647219	428.045845016137	365.055031015247	720.579519752147	304.155293698551	308.516954869600	781.112040672741	199.491824307539	382.055479229135	600.826202618013	385.553130506749	579.796248355102	486.529818666247	332.152056421826	640.690795473572	479.590078265668	225.477733060072	584.216885718114	280.626487143836	130.313422800578	559.169582439135	460.334006378959	109.712172654236	590.649580101841	354.364473573201	81.197484960663	625.718641653998	547.622839954870	34.641117299975	604.430966841883	666.002699282465	37.612735496024	413.538529429728	746.452038501501	35.722275412007	338.965764028425	826.593765307184	97.464319085023	371.384247444202	956.999612507951	45.955067445916	354.771823678465	558.310995263720	1103.640637861858	188.335779996561	628.161901066106	849.578857244748	190.908316890230	745.728743572163	1090.902221691284	778.895175477195	956.256652103928	939.185790583366	781.003029046184	
37	9.883428571429	706.865255926201	959.707178312020	321.955948223888	494.761091544891	1005.766565023501	481.985993680727	659.945197696584	1437.785106648143	314.199753236871	769.677208725967	1359.273038292648	466.896894042399	694.757008129192	1428.157375687302	647.483698044934	669.248492149174	1492.572662001233	466.089593717635	721.714070158837	931.897816778895	595.627235976447	732.250462945001	721.225769041034	573.177076968656	633.766929335230	624.501375912138	633.812581039838	706.131808683010	555.989315867598	561.728774381092	684.965409941187	452.133272376822	576.602274090665	774.955495612160	765.188959331216	359.215112724618	707.913083810942	637.931414792636	295.207305173754	798.123878806162	571.695433623798	364.524765010693	806.832674745304	500.934796165072	374.524984693191	789.395774682058	427.524635631336	364.785367818659	718.085697631135	304.353827141412	307.763112684949	776.261101579497	199.102120301773	382.131535571964	610.653566057955	385.788491105321	579.656012941508	494.278903182521	336.608484323766	640.174947104990	484.080037582703	229.784755464638	584.706778463202	282.445809271147	144.282817375939	559.425034751197	459.861110554627	112.218515180438	591.373873044375	352.505597617141	90.234175073422	625.800350433143	541.187149583750	33.545646613415	604.698181913076	659.298250301223	37.675656540645	413.409272968967	739.738177442181	35.782161698557	338.848339721777	820.009809533393	97.421124065535	371.360292089044	950.408818245464	45.487402427890	354.521217502988	564.739453938213	1104.482679270408	182.798209075526	639.851847854195	851.981868410824	185.924670339429	736.970176737474	1090.876574129866	776.821198191715	938.802594209787	927.440385484250	785.612930843730	
38	9.896857142857	709.226373927303	960.734521769851	319.580274680557	496.422703030807	1006.092324498940	478.792850367950	662.400217248669	1438.593900277318	311.286103947850	770.989241308055	1360.336136288307	464.930891691338	694.446934636354	1429.244409012778	644.830107569197	670.393484691831	1493.464767091504	463.126017625222	723.189754985841	932.965801617322	593.206159999503	738.940916721635	723.090538961181	571.158237319405	643.363967687471	624.328593919808	632.081235318047	717.819388366198	556.956876129869	560.240406539475	697.904158742876	451.515238684490	576.317504591278	776.574025770424	764.777200329872	356.764121674139	708.242805412225	637.887942225825	293.718365632670	797.613965727687	571.075589078975	363.352278898848	805.742374028174	500.360689586596	374.089825514106	787.548993470969	426.863371643810	364.496991131776	715.363264142842	304.393101707680	307.142917539610	771.339566955183	198.618062010953	382.222619370844	621.339468159650	386.217080488115	579.325304872793	503.102101110149	341.295847887467	639.594793509714	489.569267243687	234.458890894393	585.086048312211	285.863126835364	159.268327121319	559.531548358607	460.031459932629	115.185819312663	592.058678961204	351.636449001351	100.301577909064	625.818266286603	534.771052537177	32.155151250343	605.115496064199	652.513758068672	37.690539143207	413.303813865188	732.982383125629	35.775484821196	338.788113776640	813.404866452069	97.290758406367	371.431707045447	943.798138658299	44.866391965523	354.442551648605	570.850799365125	1105.380486016283	177.240542754657	651.598791796595	854.683010674276	181.088351645593	727.879678489659	1090.821667510240	774.674470436958	920.243192756099	916.364299533457	789.966570725973	
39	9.910285714286	711.387797736387	961.540636899843	317.285679442323	497.972050118999	1006.213276139606	475.790179393606	664.690187249003	1439.253400914812	308.534730494648	772.158065898373	1361.240942364225	463.099306605677	693.971820092798	1430.112022698075	642.328762117455	671.401113611235	1494.185185779854	460.330937749632	724.583333856980	933.841254197873	590.822298901444	745.838081935697	725.059257686531	569.054300494967	653.445795222685	624.223459824664	630.336526880984	729.861158403319	558.165330603202	558.484526573563	711.339671251486	451.237375363741	575.591342446334	777.946299576189	764.164357031121	354.550231298809	708.477990056781	637.720948927021	292.278156719417	796.947977270052	570.366574183932	362.342948038370	804.527244545842	499.672467386001	373.661823340258	785.559251924107	426.077271267564	364.182899257913	712.442934958025	304.294831839839	306.622248827706	766.378033579347	198.059814893928	382.309663865025	632.721033785154	386.884172313884	578.714646566102	512.867949187845	346.180028657499	638.886409187530	496.000709675100	239.460563005773	585.279291176503	290.903393892184	174.966907518097	559.435562254699	460.921086151716	118.651513360202	592.649109002551	351.882575377415	111.244931411611	625.728524884505	528.547465076776	30.541087911705	605.641747999494	645.687599236541	37.674156085448	413.211170363379	726.213376946377	35.722285278898	338.764242728214	806.798567202061	97.094693318096	371.572247621530	937.182518458567	44.143822246641	354.501546876113	576.633576081601	1106.299539778472	171.700044982738	663.348705661322	857.660915567612	176.415253766095	718.561539583059	1090.735792150455	772.462334942643	900.728288159026	905.976687815139	793.933483450457	
